<svg aria-hidden="true" xmlns="http://www.w3.org/2000/svg" xmlns:xlink="http://www.w3.org/1999/xlink"><symbol viewBox="0 0 68 74" id="big-star" xmlns="http://www.w3.org/2000/svg">
<path fill-rule="evenodd" clip-rule="evenodd" d="M46.0333 1.34606L43.7833 10.8337L40.8642 10.1415L43.1142 0.653809L46.0333 1.34606ZM29.234 2.05327L35.7447 16.0091L33.026 17.2774L26.5153 3.3216L29.234 2.05327ZM52.4527 8.9182L47.8415 30.1056L67.5826 35.6925L47.9819 41.2397L52.5885 55.4861L38.516 47.961L24.6024 66.9103L26.2787 44.2481L0.187439 39.6452L22.7448 30.2589L18.5649 10.685L36.6765 22.7766L52.4527 8.9182ZM47.5823 17.1897L36.9262 26.5504L23.0409 17.2804L26.1993 32.0707L10.8126 38.4733L29.4706 41.7649L28.3646 56.7176L37.6372 44.089L47.4464 49.3344L44.1697 39.2008L56.566 35.6925L44.3102 32.224L47.5823 17.1897ZM7.63451 19.3874L18.3836 25.575L16.8869 28.175L6.13784 21.9873L7.63451 19.3874ZM65.1291 21.9108L59.5238 25.8869L57.7881 23.44L63.3934 19.4639L65.1291 21.9108ZM5.80933 28.2197L12.8205 29.697L12.2019 32.6326L5.19078 31.1553L5.80933 28.2197ZM65.3636 49.631L52.9886 44.3877L54.159 41.6254L66.534 46.8688L65.3636 49.631ZM8.18386 56.0911L16.6829 49.1067L18.5876 51.4244L10.0886 58.4089L8.18386 56.0911ZM52.237 67.4559L48.6807 60.4691L51.3543 59.1082L54.9105 66.0951L52.237 67.4559ZM32.9098 72.7301L35.3258 59.5188L38.2769 60.0585L35.8609 73.2698L32.9098 72.7301Z"/>
</symbol><symbol viewBox="0 0 63 60" id="check" xmlns="http://www.w3.org/2000/svg">
<path fill-rule="evenodd" clip-rule="evenodd" d="M45.9786 22.3718C39.1874 31.3724 33.5721 40.257 30.6791 45.3095L29.6838 47.0478L11.6008 28.2318L13.7638 26.153L29.0823 42.0924C32.5405 36.2562 38.5682 26.9518 45.6559 17.8635L45.2567 12.2878L3.57985 14.3222L5.84591 55.9156L48.1787 53.1033L45.9786 22.3718ZM48.7309 18.8037L51.3864 55.8969L3.01551 59.1102L0.420166 11.4729L48.0397 9.14834L48.416 14.4049C52.4303 9.49295 56.7045 4.78658 60.9911 0.890137L63.009 3.11006C58.1217 7.55254 53.2299 13.1022 48.7309 18.8037Z"/>
</symbol><symbol viewBox="0 0 80 75" id="dialog" xmlns="http://www.w3.org/2000/svg">
<path fill-rule="evenodd" clip-rule="evenodd" d="M11.2833 28.6748C7.17723 33.5759 6.23108 38.5266 7.77703 42.929C9.67039 48.3207 15.2854 52.046 24.593 52.3134L26.0817 52.3562L25.8547 62.895L34.5116 51.4506L35.0732 51.3402C38.284 50.7091 41.7376 49.7642 45.4161 48.4724C56.0791 44.728 63.3993 39.9079 67.6122 34.9358C71.8045 29.9881 72.8625 24.9899 71.3257 20.6133C69.8465 16.4011 65.6839 12.6485 59.0372 12.0538C52.3586 11.4562 43.0481 14.0573 31.5669 22.9579L29.7288 20.587C41.5624 11.4131 51.6097 8.37722 59.3046 9.06573C67.0314 9.7571 72.258 14.2136 74.1562 19.6193C76.1329 25.2483 74.5931 31.3376 69.9011 36.8751C65.2297 42.3883 57.3793 47.4511 46.4101 51.303C42.8219 52.563 39.4183 53.5116 36.2158 54.1704L22.6558 72.0967L23.0189 55.2399C13.7941 54.6047 7.28113 50.5714 4.94648 43.9229C2.97891 38.3199 4.34713 32.2825 8.98361 26.7482C13.589 21.251 21.4468 16.1884 32.6926 12.2393L33.6865 15.0699C22.7333 18.9162 15.4203 23.7366 11.2833 28.6748Z"/>
<path fill-rule="evenodd" clip-rule="evenodd" d="M38.5668 22.549L41.3068 21.4085C41.3094 21.4069 41.3094 21.4069 41.3094 21.4069L41.3121 21.4115L41.3247 21.4329C41.3363 21.4526 41.3546 21.4834 41.3792 21.5243C41.4283 21.6062 41.5028 21.7286 41.6004 21.8852C41.7959 22.1986 42.0836 22.6475 42.4478 23.1807C43.1789 24.2513 44.2041 25.6414 45.3953 26.9522C46.5985 28.2763 47.9065 29.447 49.192 30.1527C50.4726 30.8557 51.5425 31.0025 52.4538 30.651C53.3387 30.3097 54.056 29.5083 54.6011 28.2013C55.1461 26.8948 55.4409 25.2573 55.5721 23.5855C55.702 21.9288 55.6653 20.3229 55.5943 19.1233C55.559 18.526 55.5155 18.0351 55.4811 17.6962C55.464 17.5269 55.4492 17.3959 55.4388 17.3089C55.4337 17.2654 55.4297 17.2329 55.427 17.2122L55.4242 17.19L55.4236 17.1857C55.4237 17.1859 55.4237 17.186 56.9104 16.987C58.3972 16.7881 58.3972 16.7885 58.3973 16.7889L58.3974 16.79L58.3978 16.7931L58.3991 16.8028L58.4033 16.836C58.4069 16.8641 58.4119 16.9043 58.418 16.9557C58.4302 17.0585 58.4469 17.2065 58.4659 17.3938C58.5038 17.7683 58.5509 18.3012 58.5891 18.9461C58.6651 20.2309 58.707 21.9828 58.5629 23.82C58.42 25.642 58.0881 27.6345 57.3699 29.3563C56.6518 31.0778 55.4692 32.7033 53.5335 33.45C51.4876 34.2392 49.4562 33.7201 47.7484 32.7826C46.0455 31.8478 44.4778 30.4034 43.175 28.9698C42.9382 28.7091 42.7079 28.4464 42.485 28.1841C42.4885 28.2438 42.4919 28.3036 42.495 28.3635C42.5843 30.0642 42.5161 31.9493 42.0269 33.586C41.5341 35.2345 40.5381 36.8473 38.6408 37.5396C36.8854 38.1802 35.1543 37.7373 33.7216 36.978C32.291 36.2197 30.9789 35.0582 29.8956 33.9172C29.7666 33.7813 29.6399 33.6447 29.5157 33.5081C29.5237 33.8102 29.5269 34.116 29.5243 34.4229C29.511 36.0184 29.3417 37.7863 28.7667 39.2311C28.1756 40.7165 27.0219 42.1238 25.0035 42.2737C23.5688 42.3803 22.3015 41.7903 21.3011 41.0607C20.2946 40.3266 19.4233 39.3553 18.7257 38.4398C18.0211 37.5151 17.451 36.5904 17.059 35.9026C16.862 35.5569 16.7074 35.2665 16.6009 35.0601C16.5476 34.9568 16.5062 34.8743 16.4774 34.816C16.463 34.7868 16.4517 34.7637 16.4436 34.7471L16.434 34.7271L16.431 34.7209L16.4299 34.7187C16.4298 34.7183 16.4292 34.7171 17.7837 34.0727C19.1382 33.4282 19.1381 33.428 19.138 33.4277L19.1431 33.4383L19.1665 33.4862C19.1883 33.5301 19.222 33.5974 19.2669 33.6845C19.357 33.8591 19.4917 34.1124 19.6654 34.4172C20.015 35.0305 20.5124 35.8348 21.1119 36.6215C21.7184 37.4174 22.3877 38.14 23.0689 38.6368C23.7562 39.1381 24.3236 39.3159 24.7813 39.2819C25.2276 39.2488 25.627 39.007 25.9793 38.1218C26.3478 37.196 26.5121 35.8717 26.5244 34.3979C26.5365 32.9547 26.4031 31.5038 26.2634 30.4016C26.194 29.8537 26.1239 29.399 26.0715 29.0834C26.0454 28.9257 26.0237 28.8032 26.0089 28.7215C26.0015 28.6806 25.9958 28.65 25.992 28.6304L25.988 28.6093L25.9872 28.6051C25.9872 28.6052 25.9872 28.6047 25.9892 28.6044L28.7375 27.5372C28.7396 27.5359 28.7396 27.5359 28.7396 27.5358L28.7413 27.5387L28.7511 27.5545C28.7603 27.5694 28.775 27.5929 28.7949 27.6244C28.8346 27.6874 28.8951 27.7822 28.9748 27.9038C29.1342 28.1473 29.3694 28.4969 29.6671 28.9127C30.2654 29.7482 31.1023 30.8311 32.0712 31.8516C33.0515 32.884 34.1047 33.7857 35.1265 34.3273C36.1463 34.8678 36.955 34.9613 37.6123 34.7214C38.2851 34.4759 38.8098 33.8735 39.1526 32.7268C39.4989 31.5682 39.5809 30.0781 39.4991 28.5207C39.4185 26.9841 39.1848 25.4868 38.9679 24.3641C38.8599 23.8055 38.7573 23.346 38.6824 23.0285C38.6449 22.8699 38.6145 22.7471 38.5938 22.6655C38.5834 22.6247 38.5755 22.5942 38.5704 22.5748L38.565 22.554L38.564 22.5502C38.564 22.5502 38.5639 22.5498 38.5668 22.549Z"/>
</symbol><symbol viewBox="0 0 71 63" id="diamond" xmlns="http://www.w3.org/2000/svg">
<path fill-rule="evenodd" clip-rule="evenodd" d="M31.9238 0.5H57.554L70.8318 16.8834L44.2002 62.1465L0.28418 32.0198L5.75559 10.9002L31.9238 0.5ZM32.699 4.54553L23.1695 25.4487L49.3562 20.5111L32.699 4.54553ZM50.528 23.343L23.1836 28.4989L43.0042 56.3985L50.528 23.343ZM37.6128 53.9894L19.9515 29.1292L5.73827 32.1233L37.6128 53.9894ZM4.05903 29.4112L7.75932 15.128L17.7815 26.5205L4.05903 29.4112ZM20.2008 24.7286L9.54919 12.6207L29.2989 4.77145L20.2008 24.7286ZM47.3298 50.9116L65.8604 19.4169L53.7602 22.6598L47.3298 50.9116ZM54.5018 19.3552L66.3911 16.1688L57.6269 5.35475L54.5018 19.3552ZM54.9671 3.5H35.9437L51.6144 18.52L54.9671 3.5Z"/>
</symbol><symbol viewBox="0 0 42 67" id="dollar" xmlns="http://www.w3.org/2000/svg">
<path fill-rule="evenodd" clip-rule="evenodd" d="M26.825 7.04189L28.0701 0.710449L31.0137 1.28932L29.7142 7.89743C34.9879 9.81004 39.7095 13.5468 41.3421 19.0145L38.4675 19.8728C37.2253 15.7124 33.5399 12.5842 29.1288 10.8741L25.5277 29.1862C29.2441 30.836 33.1298 32.6965 36.1053 35.2622C39.2266 37.9537 41.4048 41.4735 41.4048 46.3253C41.4048 51.3681 38.4741 54.7075 34.37 56.4024C30.3512 58.062 25.165 58.1943 20.158 57.0762C20.1213 57.068 20.0846 57.0597 20.0479 57.0514L18.2312 66.2893L15.2876 65.7104L17.1493 56.2436C8.26844 53.3017 -0.00865743 46.1516 0.8068 35.2041L3.79851 35.427C3.1389 44.2823 9.7328 50.536 17.7321 53.2799L22.1203 30.9659C18.9583 29.5813 15.7602 28.1557 13.2465 26.4231C10.1813 24.3103 7.81871 21.5264 7.81871 17.4936C7.81871 13.3714 9.76946 10.3779 12.7405 8.56211C15.6374 6.79157 19.4203 6.17938 23.196 6.47686C24.3911 6.57103 25.6105 6.75972 26.825 7.04189ZM26.2467 9.98252C25.1637 9.72759 24.061 9.55431 22.9604 9.46759C19.6007 9.20289 16.5039 9.77792 14.3049 11.1219C12.18 12.4206 10.8187 14.4688 10.8187 17.4936C10.8187 20.1234 12.2794 22.1129 14.9491 23.953C17.0766 25.4195 19.7713 26.6542 22.7135 27.9489L26.2467 9.98252ZM24.9337 32.2065L20.627 54.1064C20.6886 54.1206 20.7502 54.1346 20.8119 54.1483C25.4118 55.1756 29.9354 54.988 33.2249 53.6295C36.4289 52.3064 38.4048 49.9296 38.4048 46.3253C38.4048 42.53 36.7598 39.7879 34.1462 37.5342C31.6864 35.4131 28.4243 33.7747 24.9337 32.2065Z"/>
</symbol><symbol viewBox="0 0 68 50" id="eye" xmlns="http://www.w3.org/2000/svg">
<path fill-rule="evenodd" clip-rule="evenodd" d="M13.7422 18.6978C13.7278 19.1165 13.7297 19.5395 13.7486 19.9663C13.9826 25.2431 15.6744 29.4085 18.4609 32.3589C21.2459 35.3078 25.2427 37.1687 30.3204 37.6224C40.3472 38.5183 49.8101 31.5933 49.9669 20.6179C50.0741 13.1148 46.2066 7.1849 40.7941 4.06168C38.0668 4.44047 35.4393 5.03303 32.9291 5.8323L35.4828 16.5507L44.3639 20.2463L35.4745 23.0443L31.0404 35.0984L28.6218 22.8445L19.809 19.5685L29.5424 16.9841L32.8019 5.87303C25.2073 8.31624 18.6924 12.6566 13.7422 18.6978ZM45.3819 3.63203C50.0172 7.54413 53.0687 13.5144 52.9666 20.6608C52.781 33.6515 41.5372 41.6366 30.0534 40.6105C24.3757 40.1032 19.651 37.9884 16.2798 34.4188C13.3877 31.3565 11.579 27.316 10.9603 22.5302C7.2974 28.2431 4.80875 35.1979 3.8364 43.312C30.455 53.5192 60.7267 35.0817 64.4906 5.76177C57.8278 4.01629 51.3996 3.33193 45.3819 3.63203ZM11.0967 17.1979C18.3494 8.1268 28.7837 2.58361 40.8983 1.02097C48.8618 -0.00622395 57.5425 0.686264 66.5328 3.20737L67.7473 3.54795L67.6201 4.80285C64.3436 37.1437 30.8344 57.7325 1.64708 45.6689L0.615129 45.2424L0.727679 44.1314C1.82601 33.2903 5.4839 24.2181 11.0967 17.1979ZM32.5768 17.2977L31.9454 19.45L29.7022 20.0456L31.2401 20.6173L31.9143 24.0331L33.1678 20.6253L35.6149 19.8551L32.9188 18.7332L32.5768 17.2977Z"/>
</symbol><symbol viewBox="0 0 57 57" id="face" xmlns="http://www.w3.org/2000/svg">
<path fill-rule="evenodd" clip-rule="evenodd" d="M53.0497 27.221C51.7217 11.8669 38.8503 2.45759 25.873 3.59388C12.8594 4.73334 1.19421 17.478 3.23603 31.4979C4.28422 38.6953 7.17564 44.211 11.4353 47.9063C15.6927 51.5997 21.4481 53.5887 28.4386 53.4954C42.2871 53.3105 54.3652 42.4305 53.0497 27.221ZM25.6111 0.602492C40.1907 -0.674094 54.566 9.90408 56.0414 26.9622C57.5293 44.1648 43.805 56.2934 28.4786 56.4979C20.8816 56.5993 14.3726 54.4298 9.46756 50.1746C4.56482 45.9214 1.39583 39.6985 0.26454 31.9307C-2.05261 16.0202 11.0676 1.87591 25.6111 0.602492ZM40.5034 29.2619C42.5799 28.8228 44.3625 27.774 45.3272 26.9752L47.2423 29.2881C45.9612 30.3488 43.7452 31.6456 41.1247 32.1998C38.4677 32.7617 35.3198 32.5688 32.3837 30.5005L34.1131 28.0456C36.2162 29.5272 38.4635 29.6933 40.5034 29.2619ZM16.1287 34.1558C13.3958 33.725 11.1665 32.2957 9.91028 31.0775L12.0008 28.9219C12.8968 29.7908 14.5816 30.872 16.5962 31.1896C18.5342 31.4951 20.8654 31.1137 23.2626 28.9457L25.2768 31.1728C22.1881 33.9662 18.9382 34.5987 16.1287 34.1558ZM29.2697 48.5062C25.5464 48.2635 22.2199 44.9038 21.8174 40.2499L24.809 39.9912C25.1052 43.4157 27.4583 45.3789 29.465 45.5097C30.4351 45.573 31.4234 45.2327 32.2526 44.2984C33.1066 43.3361 33.8669 41.6492 34.0756 38.9321L37.0696 39.1621C36.8282 42.3047 35.9184 44.6916 34.4985 46.2915C33.0539 47.9194 31.1646 48.6297 29.2697 48.5062Z"/>
</symbol><symbol viewBox="0 0 57 69" id="finger" xmlns="http://www.w3.org/2000/svg">
<path fill-rule="evenodd" clip-rule="evenodd" d="M19.7375 24.3534C18.5622 27.3097 16.7027 29.9751 13.4651 31.4237C12.5232 31.8451 11.4863 32.1587 10.3457 32.3553L9.83605 29.3989C10.0381 29.3641 10.2344 29.325 10.425 29.2818C9.7145 28.5748 8.85868 28.0893 7.86129 28.1828C5.93059 28.3637 4.50506 30.0047 3.8472 33.576C3.20522 37.0612 3.46507 41.7465 4.38214 46.5329C5.29606 51.3029 6.83426 56.0261 8.63858 59.5607C9.54256 61.3316 10.4833 62.7446 11.4004 63.7126C12.339 64.7034 13.0997 65.0697 13.6409 65.1122C16.3133 65.322 17.6369 64.3242 18.3443 63.4223C18.5129 63.2074 18.6531 62.9886 18.7692 62.7777C17.3236 62.342 16.0061 61.7078 14.8235 60.8787L16.5457 58.4222C17.7966 59.2993 19.277 59.9174 21.0175 60.2381C24.0791 60.8022 28.1214 60.3812 32.0491 58.9694C30.5736 57.838 29.6304 56.3981 29.1065 54.8556C28.415 52.8193 28.4775 50.6858 28.8547 48.948C27.1913 46.4197 27.1749 43.3279 27.764 40.9951C26.5243 39.9826 25.7267 38.7335 25.4897 37.3378C25.1952 35.6044 25.8151 33.9316 26.9977 32.6071C29.3344 29.99 33.9228 28.5625 39.632 29.5249L39.1333 32.4832C34.0516 31.6266 30.6586 33.0113 29.2356 34.6051C28.5384 35.386 28.334 36.1682 28.4473 36.8354C28.5613 37.5068 29.0471 38.3489 30.3062 39.1286C33.1581 40.8945 37.736 41.6692 42.1781 41.1189C46.6439 40.5656 50.489 38.7412 52.2547 35.8464C53.0848 34.4855 53.4423 32.7635 52.9587 30.5472C52.2681 27.3819 49.4979 25.7116 45.5662 25.1465C41.6678 24.5862 37.155 25.2309 34.1187 26.2232L31.4789 27.0859L32.2047 24.4057L32.208 24.3936L32.2198 24.3491C32.2304 24.3087 32.2464 24.2471 32.2671 24.1658C32.3085 24.0032 32.3685 23.7619 32.4413 23.4534C32.587 22.8361 32.7834 21.9518 32.9838 20.8926C33.3864 18.7654 33.7977 15.9723 33.8594 13.2351C33.922 10.4519 33.6155 7.93794 32.7486 6.23111C32.3294 5.40576 31.8059 4.82186 31.1732 4.45561C30.5462 4.09267 29.6943 3.87506 28.4958 3.97737C27.3433 4.07575 26.4903 4.42787 25.8187 4.93706C25.1345 5.45581 24.5629 6.19574 24.0739 7.17396C23.0678 9.18654 22.5444 11.9098 21.9908 15.04C21.9635 15.1945 21.9362 15.3498 21.9087 15.5059C21.3968 18.4108 20.8368 21.5884 19.7375 24.3534ZM35.6832 22.6953C35.7632 22.3137 35.8471 21.8968 35.9315 21.4505C36.35 19.239 36.7918 16.2679 36.8586 13.3027C36.9243 10.3835 36.6344 7.25693 35.4234 4.87257C34.8036 3.65233 33.9178 2.57797 32.6761 1.85923C31.4287 1.13718 29.9412 0.843069 28.2407 0.988238C26.5705 1.13081 25.1665 1.66676 24.0062 2.54648C22.8585 3.41664 22.0234 4.56647 21.3905 5.83259C20.1527 8.3087 19.5716 11.4925 19.0367 14.5176C19.0157 14.6364 18.9947 14.7551 18.9738 14.8736C18.444 17.8747 17.932 20.7745 16.9498 23.2451C16.1197 25.3329 15.0008 26.9897 13.3505 28.0774C13.1375 27.8005 12.8828 27.4999 12.5864 27.2007C11.5598 26.1643 9.86012 24.9823 7.58135 25.1959C3.53277 25.5753 1.61761 29.1198 0.896837 33.0326C0.160194 37.0316 0.483782 42.129 1.43573 47.0975C2.39084 52.0824 4.00723 57.0864 5.96658 60.9247C6.94442 62.8403 8.03777 64.5252 9.22252 65.7758C10.3857 67.0036 11.7946 67.9764 13.406 68.103C17.1068 68.3936 19.3944 66.9443 20.7047 65.2739C21.2271 64.608 21.5739 63.9346 21.8014 63.3776C25.9832 63.8094 31.0763 62.8718 35.6362 60.7294C37.6337 61.3091 40.0852 61.5199 43.0635 61.2741C49.7832 60.7194 53.5244 58.1153 55.186 54.6963C56.6437 51.6973 56.3267 48.411 55.551 46.1026C56.3332 44.4023 56.4716 42.5686 56.3031 40.9109C56.1458 39.3635 55.7152 37.8968 55.2104 36.6934C56.169 34.7594 56.4515 32.4822 55.8898 29.9077C54.7981 24.9043 50.3952 22.8097 45.993 22.177C42.5523 21.6825 38.7828 22.0076 35.6832 22.6953ZM53.034 39.6216C50.358 42.2084 46.4324 43.6147 42.5469 44.0961C38.3986 44.6101 33.9479 44.1185 30.4965 42.6035C30.2474 44.3251 30.5061 46.2719 31.6483 47.6938C33.0336 49.4183 36.0007 50.9389 42.0685 50.2621C48.5072 49.5438 51.3989 47.3767 52.6148 45.2578C53.2839 44.092 53.4675 42.6807 53.3185 41.2142C53.2633 40.671 53.1636 40.1349 53.034 39.6216ZM53.1676 49.2478C50.9176 51.2423 47.4355 52.682 42.4011 53.2436C37.5671 53.7828 34.0238 53.0884 31.5769 51.5683C31.5817 52.3469 31.6926 53.1411 31.9472 53.8909C32.4688 55.4269 33.6216 56.8807 36.008 57.7013C37.6118 58.2528 39.8179 58.5318 42.8167 58.2842C48.8458 57.7865 51.4301 55.5613 52.4879 53.3849C53.1317 52.0602 53.2901 50.5963 53.1676 49.2478Z"/>
</symbol><symbol viewBox="0 0 70 69" id="flover" xmlns="http://www.w3.org/2000/svg">
<path fill-rule="evenodd" clip-rule="evenodd" d="M39.4489 6.88336C36.5278 4.27781 32.9823 2.99048 29.3678 3.68883C25.6199 4.41298 22.87 6.43607 21.1148 9.58672C19.3313 12.7883 18.5214 17.2602 18.9502 22.896L19.0448 24.1395L17.8395 24.4596C12.4213 25.8981 8.66986 27.9801 6.38037 30.4752C4.1344 32.9228 3.20404 35.8631 3.58159 39.3087C4.305 45.9106 12.0481 51.9729 23.0208 50.8695L24.115 50.7595L24.5491 51.7698C29.177 62.5399 35.4311 66.4342 41.2512 65.3097C44.1396 64.7517 46.508 62.794 48.2155 59.5824C49.9338 56.3506 50.9293 51.9265 51.0176 46.722L51.0357 45.6489L52.0573 45.3197C63.3911 41.6676 67.1824 34.2113 66.0909 28.5515C65.577 25.8869 63.4418 23.1774 60.0103 21.236C56.607 19.3105 52.0639 18.2303 47.0473 18.7523L45.6887 18.8936L45.4212 17.5541C44.5846 13.3658 42.3782 9.49623 39.4489 6.88336ZM48.0622 15.6627C46.9374 11.3686 44.5702 7.43149 41.4459 4.64459C37.9995 1.57049 33.5379 -0.172358 28.7987 0.743303C24.1931 1.63316 20.6862 4.19167 18.494 8.12676C16.48 11.7422 15.6236 16.4266 15.8826 21.8921C10.7353 23.4078 6.7886 25.593 4.16993 28.4469C1.30992 31.5637 0.132555 35.3746 0.599442 39.6355C1.53543 48.1775 10.7602 54.6524 22.2306 53.943C27.0443 64.4947 34.1096 69.745 41.8203 68.2552C45.8161 67.4832 48.8476 64.784 50.8644 60.9908C52.7409 57.4615 53.7837 52.921 53.987 47.8338C65.4968 43.7548 70.4714 35.4232 69.0366 27.9834C68.3066 24.1986 65.4226 20.8513 61.4876 18.6249C57.8381 16.5602 53.1648 15.3803 48.0622 15.6627ZM40.8973 25.5631C38.8292 24.1559 36.1863 23.6845 33.2861 24.5267C29.8373 25.5283 27.5254 27.2112 26.1968 29.2381C24.8746 31.2551 24.4215 33.7707 24.9781 36.6565C25.6599 40.192 27.4823 42.4566 29.7684 43.7385C32.0932 45.0421 35.0199 45.3941 37.9432 44.8293C43.3691 43.7809 46.3515 38.5212 45.2368 32.7413C44.5983 29.4304 42.9798 26.9801 40.8973 25.5631ZM42.5849 23.0828C45.4199 25.0118 47.4176 28.2068 48.1825 32.1732C49.5416 39.2203 45.902 46.347 38.5123 47.7748C35.028 48.448 31.3549 48.0676 28.3011 46.3552C25.2085 44.621 22.8735 41.5858 22.0324 37.2247C21.352 33.697 21.873 30.362 23.6878 27.5935C25.4961 24.8349 28.484 22.7973 32.4495 21.6458C36.159 20.5685 39.7354 21.1439 42.5849 23.0828Z"/>
</symbol><symbol viewBox="0 0 32 32" id="giftbox" xmlns="http://www.w3.org/2000/svg">
<title>gift</title>
<path d="M28 9.25h-1.176c0.824-0.916 1.328-2.134 1.328-3.47 0-0.398-0.045-0.785-0.129-1.157l0.007 0.035c-0.438-1.705-1.806-3.003-3.519-3.333l-0.028-0.005c-0.206-0.030-0.444-0.046-0.686-0.046-1.874 0-3.513 1.012-4.398 2.518l-0.013 0.024-3.385 4.869-3.384-4.869c-0.901-1.531-2.54-2.542-4.416-2.542-0.241 0-0.477 0.017-0.709 0.049l0.027-0.003c-1.741 0.333-3.11 1.632-3.54 3.307l-0.007 0.031c-0.078 0.337-0.123 0.725-0.123 1.123 0 1.336 0.504 2.553 1.332 3.474l-0.004-0.005h-1.177c-1.518 0.002-2.748 1.232-2.75 2.75v3c0.004 1.247 0.839 2.298 1.981 2.628l0.019 0.005v10.367c0.002 1.518 1.232 2.748 2.75 2.75h20c1.518-0.002 2.748-1.232 2.75-2.75v-10.367c1.16-0.335 1.995-1.386 2-2.632v-3.001c-0.002-1.518-1.232-2.748-2.75-2.75h-0zM20.615 4.672c0.636-1.139 1.834-1.897 3.209-1.897 0.137 0 0.272 0.008 0.405 0.022l-0.016-0.001c1.16 0.224 2.071 1.091 2.357 2.208l0.005 0.021c0.029 0.189 0.046 0.407 0.046 0.628 0 1.493-0.755 2.809-1.905 3.588l-0.015 0.010h-7.266zM5.426 5.024c0.29-1.138 1.201-2.004 2.342-2.225l0.019-0.003c0.114-0.013 0.247-0.020 0.381-0.020 1.377 0 2.576 0.757 3.206 1.877l0.010 0.018 3.182 4.578h-7.266c-1.165-0.788-1.92-2.105-1.92-3.597 0-0.222 0.017-0.439 0.049-0.652l-0.003 0.024zM2.75 15v-3c0.001-0.69 0.56-1.249 1.25-1.25h11.25v5.5h-11.25c-0.69-0.001-1.249-0.56-1.25-1.25v-0zM4.75 28v-10.25h10.5v11.5h-9.25c-0.69-0.001-1.249-0.56-1.25-1.25v-0zM27.25 28c-0.001 0.69-0.56 1.249-1.25 1.25h-9.25v-11.5h10.5zM29.25 15c-0.001 0.69-0.56 1.249-1.25 1.25h-11.25v-5.5h11.25c0.69 0.001 1.249 0.56 1.25 1.25v0z"/>
</symbol><symbol viewBox="0 0 62 67" id="heart" xmlns="http://www.w3.org/2000/svg">
<path fill-rule="evenodd" clip-rule="evenodd" d="M36.0455 6.25152C39.363 3.69784 43.43 2.62265 48.3115 4.32507C53.2698 6.05427 56.0593 9.24628 57.2772 13.3633C58.5214 17.5695 58.1585 22.875 56.4466 28.7524C53.1076 40.2158 44.8043 53.2769 34.9304 63.2017C18.771 55.6409 9.31942 45.5197 5.30304 36.357C1.18531 26.963 2.83274 18.9058 8.19175 15.0168C10.7344 13.1716 13.7439 13.1264 16.9025 14.3482C19.559 15.3758 22.2105 17.2703 24.4921 19.5469C23.4208 23.305 22.9924 27.0132 23.3018 29.9501C23.497 31.8037 24.0071 33.5527 25.0369 34.7725C25.5694 35.4032 26.2471 35.8975 27.0727 36.1583C27.8953 36.4182 28.7712 36.4168 29.6586 36.2044C31.3831 35.7917 32.6503 34.8172 33.3113 33.3644C33.9385 31.9858 33.9261 30.3815 33.5897 28.8202C32.9173 25.6993 30.8145 22.0991 28.0678 18.975C28.0049 18.9034 27.9415 18.832 27.8777 18.7607C28.0201 18.3391 28.1715 17.9169 28.3321 17.4952C30.028 13.0407 32.6597 8.85779 36.0455 6.25152ZM25.5384 16.4015C27.3543 11.6425 30.2515 6.92569 34.2156 3.87426C38.2553 0.764632 43.3704 -0.575358 49.2994 1.49239C55.1517 3.53335 58.6568 7.45112 60.1539 12.5123C61.6247 17.4842 61.1229 23.4252 59.3269 29.5914C55.7323 41.9326 46.7765 55.7848 36.2993 66.0705L35.5648 66.7915L34.6278 66.3657C17.3915 58.5325 7.01298 47.7306 2.55542 37.5613C-1.87794 27.4473 -0.509552 17.6246 6.42973 12.5888C10.0362 9.97156 14.1909 10.0827 17.9848 11.5502C20.6805 12.593 23.2714 14.3406 25.5384 16.4015ZM26.8958 22.2594C28.8645 24.7791 30.2089 27.3724 30.657 29.452C30.9198 30.6716 30.8402 31.5514 30.5806 32.122C30.3547 32.6184 29.9153 33.0583 28.9603 33.2868C28.508 33.3951 28.1949 33.3667 27.9764 33.2976C27.7609 33.2296 27.5453 33.0932 27.3292 32.8372C26.862 32.2838 26.4538 31.2358 26.2853 29.6358C26.0722 27.613 26.2756 25.0284 26.8958 22.2594Z"/>
</symbol><symbol viewBox="0 0 62 64" id="leaf" xmlns="http://www.w3.org/2000/svg">
<path fill-rule="evenodd" clip-rule="evenodd" d="M25.3697 4.33748C22.1519 3.10677 18.4938 3.07593 14.3506 5.32477C11.3066 6.97699 10.161 9.17699 9.98514 11.5674C9.79987 14.0851 10.6864 16.9694 12.0953 19.8109C13.4902 22.6241 15.3166 25.2362 16.8107 27.1593C17.5547 28.1169 18.2093 28.8948 18.676 29.4312C18.9092 29.6992 19.095 29.9064 19.2211 30.0452C19.2842 30.1145 19.3323 30.1667 19.3639 30.2008L19.3987 30.2381L19.4064 30.2464L19.4075 30.2475L22.1243 33.1243L18.183 32.7739C10.3684 32.0792 5.80804 35.5857 4.07781 39.8582C2.30388 44.2387 3.37543 49.6664 7.38414 53.1189C11.3842 56.5639 18.348 58.4976 25.9599 59.5142C32.6628 60.4094 39.609 60.5644 44.9213 60.5537C43.5991 55.2501 41.5086 48.1705 38.5456 41.0992C35.2161 33.1529 30.8374 25.3461 25.3104 20.0497L27.388 17.8817C33.3502 23.5951 37.9222 31.8413 41.3151 39.9388C44.0084 46.3663 45.9919 52.7817 47.3468 57.9238C47.8433 56.9714 48.4168 55.8466 49.0356 54.5876C51.0367 50.5166 53.4993 45.0691 55.3775 39.5154C57.2691 33.922 58.5084 28.389 58.2024 24.0863C58.0506 21.9517 57.5256 20.2332 56.6175 18.9638C55.7331 17.7275 54.4037 16.8004 52.3883 16.363C50.5332 15.9605 49.2421 16.25 48.3086 16.7826C47.3425 17.3338 46.6051 18.2349 46.0488 19.2955C45.4935 20.3542 45.1618 21.4911 44.9703 22.3855C44.8756 22.8277 44.8177 23.1986 44.7838 23.4546C44.7669 23.5823 44.7561 23.6807 44.7498 23.744C44.7466 23.7757 44.7446 23.7986 44.7434 23.8119L44.7425 23.8227L44.7424 23.8238C44.7424 23.8238 44.7424 23.8237 44.7386 23.8233L41.848 24.2578C41.8459 24.2586 41.8459 24.2587 41.8459 24.2587L41.8401 24.2439L41.818 24.1883C41.7977 24.1377 41.7664 24.0605 41.7243 23.9588C41.6402 23.7554 41.5128 23.4543 41.3434 23.0721C41.0044 22.3073 40.4982 21.2202 39.8346 19.9439C38.5033 17.3834 36.5578 14.0995 34.0825 11.133C31.5959 8.15307 28.6587 5.59543 25.3697 4.33748ZM42.8108 19.1668C42.7107 18.9691 42.6067 18.7663 42.4988 18.5587C41.1096 15.887 39.0502 12.3995 36.388 9.20918C33.7372 6.03245 30.4043 3.04815 26.4424 1.53283C22.4093 -0.00972784 17.8357 0.0165169 12.9182 2.68568C8.99553 4.81481 7.24301 7.91463 6.99045 11.347C6.74726 14.6519 7.90193 18.1133 9.40508 21.1448C10.9222 24.2046 12.8787 26.9927 14.4395 29.0016C14.6344 29.2525 14.8236 29.4919 15.0056 29.7186C7.96657 30.1147 3.27434 33.8424 1.29458 38.7311C-0.948557 44.2702 0.412136 51.0772 5.42457 55.3942C10.1423 59.4573 17.8915 61.466 25.5623 62.4905C33.3131 63.5257 41.3264 63.5943 46.8402 63.5459L47.7024 63.5383L48.1304 62.7898L46.827 62.0445C48.1304 62.7898 48.1306 62.7894 48.1309 62.7889L48.1359 62.7801L48.1503 62.7548L48.2049 62.6583C48.2524 62.574 48.322 62.45 48.4115 62.2889C48.5906 61.9666 48.8495 61.4956 49.1715 60.896C49.8156 59.6969 50.7131 57.982 51.7305 55.9122C53.7622 51.7787 56.286 46.2021 58.222 40.4774C60.1446 34.7923 61.5474 28.7925 61.1976 23.8733C61.0215 21.3969 60.3942 19.0822 59.0597 17.2167C57.7016 15.3181 55.6983 14.0087 53.0251 13.4285C50.538 12.8888 48.4753 13.2304 46.8205 14.1745C45.1984 15.1 44.1131 16.5213 43.3896 17.9008C43.1682 18.323 42.9765 18.7488 42.8108 19.1668Z"/>
</symbol><symbol viewBox="0 0 50 63" id="martiny" xmlns="http://www.w3.org/2000/svg">
<path fill-rule="evenodd" clip-rule="evenodd" d="M35.5634 12.5263L0.338485 7.01789L19.1223 38.9812L16.3161 56.9262L4.57803 55.0906L4.11453 58.0546L30.4328 62.1702L30.8963 59.2062L19.2801 57.3897L22.0863 39.4447L49.7315 14.7419L38.9694 13.0589L47.4786 2.32421L45.1276 0.460632L35.5634 12.5263ZM21.0528 36.345L43.0076 16.7269L33.3456 15.216L19.0342 32.9101L21.0528 36.345ZM17.4105 30.1471L29.9204 14.6803L6.13532 10.9609L17.4105 30.1471Z"/>
</symbol><symbol viewBox="0 0 61 65" id="o-line" xmlns="http://www.w3.org/2000/svg">
<path fill-rule="evenodd" clip-rule="evenodd" d="M45.9703 2.57927C51.6096 4.98043 56.3497 9.5377 59.1807 16.6425C61.173 21.6425 61.5133 28.2451 59.6935 34.2798C57.8634 40.3483 53.8056 45.9613 46.9063 48.7256C40.2396 51.3966 32.628 51.8935 26.3406 49.5522C19.9646 47.178 15.0537 41.9097 13.9856 33.3963C12.8925 24.6823 17.8328 18.4919 24.0356 15.4666C30.1274 12.4954 37.8664 12.3791 42.7048 16.2604C47.3426 19.9807 48.6305 24.4491 47.8331 28.3759C47.0614 32.1757 44.351 35.3384 41.2671 36.574C38.4436 37.7053 35.5636 37.9834 33.1253 37.2774C30.637 36.5571 28.6669 34.8157 27.8681 32.1299L30.7437 31.2747C31.2259 32.8961 32.3635 33.9337 33.9596 34.3958C35.6057 34.8724 37.7869 34.7365 40.1513 33.7892C42.2552 32.9462 44.3132 30.6345 44.8931 27.7789C45.4471 25.0504 44.6696 21.6825 40.8276 18.6005C37.1861 15.6793 30.783 15.5135 25.3507 18.163C20.0294 20.7584 16.0635 25.8587 16.9623 33.0229C17.8862 40.3877 22.0203 44.7422 27.3875 46.7408C32.8432 48.7724 39.6728 48.3919 45.7905 45.9408C51.6755 43.5829 55.1976 38.7976 56.8212 33.4136C58.455 27.9959 58.1226 22.0918 56.3938 17.753C53.8481 11.364 49.6726 7.4163 44.795 5.33948C39.8845 3.24865 34.155 3.01144 28.499 4.26646C17.1015 6.79547 6.56717 15.2256 4.05336 25.5447C-1.08233 46.6265 13.6946 59.7097 25.0592 61.5186L24.5876 64.4813C11.7536 62.4385 -4.47211 47.8664 1.13861 24.8346C3.99801 13.0969 15.6827 4.03732 27.8491 1.33769C33.9751 -0.0216138 40.3638 0.192124 45.9703 2.57927Z"/>
</symbol><symbol viewBox="0 0 60 68" id="pensil" xmlns="http://www.w3.org/2000/svg">
<path fill-rule="evenodd" clip-rule="evenodd" d="M37.5203 0.5H38.1079C41.6606 0.5 45.3164 1.8004 48.5484 3.80169C51.3759 5.55253 53.9475 7.88095 55.92 10.4812C57.6685 12.7863 58.9812 15.3515 59.5497 17.9634L59.686 18.5897L34.5337 55.8906L0.404907 67.1029L1.90179 33.4704L37.5203 0.5ZM38.6805 3.51397L7.13165 32.7174C10.3801 33.0454 13.7419 34.0355 16.9489 35.5009L45.3524 5.43958C43.1306 4.30435 40.8395 3.61842 38.6805 3.51397ZM47.9872 7.01931L19.7388 36.9163C22.5723 38.5004 25.2507 40.4581 27.5756 42.6803L52.8013 11.3842C51.4246 9.75202 49.778 8.25821 47.9872 7.01931ZM54.6313 13.8942L29.6687 44.8641C31.4271 46.8734 32.9046 49.0653 33.9602 51.3751L56.4692 17.9942C56.098 16.6348 55.4711 15.2493 54.6313 13.8942ZM31.6737 53.6725C30.6352 50.9746 28.8735 48.3479 26.6055 45.9557C23.8254 43.0233 20.3328 40.4951 16.6274 38.6689C12.649 36.7081 8.5085 35.5965 4.81006 35.5983L4.24061 48.3929C4.70314 48.5124 5.27019 48.6725 5.90647 48.8798C7.59956 49.4314 9.8362 50.3346 11.9029 51.7355C13.9639 53.1325 15.7432 54.9486 16.989 56.3816C17.5498 57.0266 18.0117 57.6047 18.3525 58.0488L31.6737 53.6725ZM15.3143 59.047C15.1345 58.8282 14.9376 58.5944 14.7251 58.3499C13.5619 57.0121 11.9776 55.4103 10.2197 54.2187C8.46753 53.0311 6.51674 52.2339 4.97712 51.7322C4.66513 51.6306 4.37222 51.5418 4.10388 51.4649L3.59507 62.8971L15.3143 59.047Z"/>
</symbol><symbol viewBox="0 0 28 28" id="star" xmlns="http://www.w3.org/2000/svg">
<path d="M14 0C14 7.73199 7.73199 14 0 14C7.73199 14 14 20.268 14 28C14 20.268 20.268 14 28 14C20.268 14 14 7.73199 14 0Z"/>
</symbol></svg>