<svg width="86" height="34" viewBox="0 0 86 34" fill="none" xmlns="http://www.w3.org/2000/svg">
<path d="M0.64 26.5V0.099999H5.72V26.5H0.64ZM1.84 26.5V22.18H17.04V26.5H1.84ZM28.9416 27.02C26.9149 27.02 25.1149 26.6067 23.5416 25.78C21.9949 24.9533 20.7682 23.7267 19.8616 22.1C18.9816 20.4467 18.5416 18.42 18.5416 16.02C18.5416 13.54 18.9949 11.5 19.9016 9.9C20.8082 8.27333 22.0349 7.06 23.5816 6.26C25.1549 5.46 26.9282 5.06 28.9016 5.06C30.9282 5.06 32.7149 5.47333 34.2616 6.3C35.8349 7.12667 37.0616 8.35333 37.9416 9.98C38.8482 11.6067 39.3016 13.6467 39.3016 16.1C39.3016 18.58 38.8482 20.6333 37.9416 22.26C37.0349 23.86 35.7949 25.06 34.2216 25.86C32.6482 26.6333 30.8882 27.02 28.9416 27.02ZM29.0616 23.18C29.7549 23.18 30.4082 23.06 31.0216 22.82C31.6616 22.5533 32.2082 22.1533 32.6616 21.62C33.1416 21.0867 33.5149 20.38 33.7816 19.5C34.0482 18.62 34.1816 17.5667 34.1816 16.34C34.1816 15.06 34.0349 13.9667 33.7416 13.06C33.4482 12.1267 33.0482 11.3667 32.5416 10.78C32.0616 10.1933 31.4882 9.76667 30.8216 9.5C30.1816 9.23333 29.4882 9.1 28.7416 9.1C28.0749 9.1 27.4349 9.23333 26.8216 9.5C26.2082 9.74 25.6616 10.1267 25.1816 10.66C24.7016 11.1933 24.3282 11.9 24.0616 12.78C23.7949 13.66 23.6616 14.7133 23.6616 15.94C23.6616 17.22 23.7949 18.3267 24.0616 19.26C24.3549 20.1667 24.7549 20.9133 25.2616 21.5C25.7682 22.06 26.3416 22.4867 26.9816 22.78C27.6216 23.0467 28.3149 23.18 29.0616 23.18ZM51.1381 33.34C48.8448 33.34 46.9915 33.1667 45.5781 32.82C44.1648 32.4733 43.1381 31.9533 42.4981 31.26C41.8581 30.5933 41.5381 29.78 41.5381 28.82C41.5381 27.62 42.0048 26.6467 42.9381 25.9C43.8981 25.1267 45.3248 24.62 47.2181 24.38V23.78C45.7781 23.78 44.6848 23.6067 43.9381 23.26C43.1915 22.9133 42.8181 22.3533 42.8181 21.58C42.8181 20.86 43.1781 20.22 43.8981 19.66C44.6448 19.1 45.8581 18.6733 47.5381 18.38V17.74C45.9381 17.58 44.6848 17.02 43.7781 16.06C42.8981 15.1 42.4581 13.86 42.4581 12.34C42.4581 10.98 42.8181 9.79333 43.5381 8.78C44.2848 7.74 45.3515 6.92667 46.7381 6.34C48.1515 5.75333 49.8581 5.46 51.8581 5.46H62.2581V9.5L55.5381 8.54V9.22C57.2981 9.51333 58.5648 10.02 59.3381 10.74C60.1381 11.4333 60.5381 12.34 60.5381 13.46C60.5381 14.5267 60.1915 15.4867 59.4981 16.34C58.8315 17.1667 57.8581 17.82 56.5781 18.3C55.2981 18.7533 53.7248 18.98 51.8581 18.98C51.4315 18.98 51.0048 18.9667 50.5781 18.94C50.1515 18.8867 49.5781 18.8067 48.8581 18.7C48.2181 19.0733 47.7248 19.4067 47.3781 19.7C47.0581 19.9933 46.8981 20.2733 46.8981 20.54C46.8981 20.7267 47.0181 20.8867 47.2581 21.02C47.4981 21.1267 47.8048 21.2067 48.1781 21.26C48.5515 21.3133 48.9381 21.34 49.3381 21.34H55.1781C55.6848 21.34 56.3515 21.38 57.1781 21.46C58.0315 21.54 58.8715 21.7533 59.6981 22.1C60.5515 22.42 61.2581 22.9533 61.8181 23.7C62.4048 24.42 62.6981 25.46 62.6981 26.82C62.6981 28.3133 62.2715 29.54 61.4181 30.5C60.5648 31.4867 59.2848 32.2067 57.5781 32.66C55.8715 33.1133 53.7248 33.34 51.1381 33.34ZM51.3781 29.14C53.1381 29.14 54.5115 29.0467 55.4981 28.86C56.5115 28.6733 57.2181 28.3933 57.6181 28.02C58.0181 27.6467 58.2181 27.1667 58.2181 26.58C58.2181 26.0467 58.0848 25.6333 57.8181 25.34C57.5515 25.02 57.2048 24.7933 56.7781 24.66C56.3781 24.5267 55.9648 24.4467 55.5381 24.42C55.1115 24.3933 54.7515 24.38 54.4581 24.38H49.3781C48.1781 24.6467 47.3381 25.02 46.8581 25.5C46.3781 25.9533 46.1381 26.4733 46.1381 27.06C46.1381 27.6467 46.3515 28.0867 46.7781 28.38C47.2048 28.6733 47.8048 28.8733 48.5781 28.98C49.3781 29.0867 50.3115 29.14 51.3781 29.14ZM51.6981 16.14C53.0048 16.14 54.0048 15.82 54.6981 15.18C55.4181 14.5133 55.7781 13.66 55.7781 12.62C55.7781 11.5 55.4181 10.58 54.6981 9.86C53.9781 9.14 52.9648 8.78 51.6581 8.78C50.3248 8.78 49.2848 9.14 48.5381 9.86C47.8181 10.5533 47.4581 11.4467 47.4581 12.54C47.4581 13.2333 47.6181 13.86 47.9381 14.42C48.2848 14.9533 48.7648 15.38 49.3781 15.7C50.0181 15.9933 50.7915 16.14 51.6981 16.14ZM74.8791 27.02C72.8524 27.02 71.0524 26.6067 69.4791 25.78C67.9324 24.9533 66.7057 23.7267 65.7991 22.1C64.9191 20.4467 64.4791 18.42 64.4791 16.02C64.4791 13.54 64.9324 11.5 65.8391 9.9C66.7457 8.27333 67.9724 7.06 69.5191 6.26C71.0924 5.46 72.8657 5.06 74.8391 5.06C76.8657 5.06 78.6524 5.47333 80.1991 6.3C81.7724 7.12667 82.9991 8.35333 83.8791 9.98C84.7857 11.6067 85.2391 13.6467 85.2391 16.1C85.2391 18.58 84.7857 20.6333 83.8791 22.26C82.9724 23.86 81.7324 25.06 80.1591 25.86C78.5857 26.6333 76.8257 27.02 74.8791 27.02ZM74.9991 23.18C75.6924 23.18 76.3457 23.06 76.9591 22.82C77.5991 22.5533 78.1457 22.1533 78.5991 21.62C79.0791 21.0867 79.4524 20.38 79.7191 19.5C79.9857 18.62 80.1191 17.5667 80.1191 16.34C80.1191 15.06 79.9724 13.9667 79.6791 13.06C79.3857 12.1267 78.9857 11.3667 78.4791 10.78C77.9991 10.1933 77.4257 9.76667 76.7591 9.5C76.1191 9.23333 75.4257 9.1 74.6791 9.1C74.0124 9.1 73.3724 9.23333 72.7591 9.5C72.1457 9.74 71.5991 10.1267 71.1191 10.66C70.6391 11.1933 70.2657 11.9 69.9991 12.78C69.7324 13.66 69.5991 14.7133 69.5991 15.94C69.5991 17.22 69.7324 18.3267 69.9991 19.26C70.2924 20.1667 70.6924 20.9133 71.1991 21.5C71.7057 22.06 72.2791 22.4867 72.9191 22.78C73.5591 23.0467 74.2524 23.18 74.9991 23.18Z" fill="white"/>
</svg>
